<svg width="925" height="353" viewBox="0 0 925 353" fill="none" xmlns="http://www.w3.org/2000/svg">
<path d="M303.473 104C302.675 96.9467 301.97 90.8747 301.357 85.784C300.743 80.632 300.13 75.848 299.517 71.432C299.087 68.2427 298.627 65.0533 298.137 61.864C297.707 58.6747 297.217 55.3013 296.665 51.744C296.174 48.1253 295.591 44.0773 294.917 39.6H298.781C299.455 45.9173 300.069 51.6213 300.621 56.712C301.234 61.7413 301.755 66.188 302.185 70.052C302.675 73.916 303.105 77.2587 303.473 80.08C303.902 83.5147 304.239 86.244 304.485 88.268C304.73 90.2307 304.914 91.7027 305.037 92.684C305.221 93.6653 305.374 94.34 305.497 94.708C305.681 95.0147 305.803 95.2293 305.865 95.352C306.233 95.8427 306.785 96.18 307.521 96.364C308.318 96.4867 309.606 96.548 311.385 96.548C313.041 96.548 314.237 96.456 314.973 96.272C315.77 96.088 316.322 95.7813 316.629 95.352C316.813 95.168 316.966 94.892 317.089 94.524C317.211 94.156 317.365 93.3893 317.549 92.224C317.733 91.0587 317.978 89.3107 318.285 86.98C318.653 84.6493 319.082 81.4907 319.573 77.504C320.125 73.456 320.769 68.3653 321.505 62.232C322.302 56.0373 323.253 48.4933 324.357 39.6H333.189C334.231 48.4933 335.121 56.0373 335.857 62.232C336.654 68.3653 337.298 73.456 337.789 77.504C338.341 81.4907 338.77 84.6493 339.077 86.98C339.445 89.3107 339.721 91.0587 339.905 92.224C340.089 93.3893 340.242 94.156 340.365 94.524C340.549 94.892 340.702 95.168 340.825 95.352C341.193 95.7813 341.745 96.088 342.481 96.272C343.217 96.456 344.413 96.548 346.069 96.548C347.909 96.548 349.197 96.4867 349.933 96.364C350.669 96.18 351.221 95.8427 351.589 95.352C351.711 95.2293 351.834 95.0147 351.957 94.708C352.079 94.34 352.202 93.6653 352.325 92.684C352.509 91.6413 352.723 90.1387 352.969 88.176C353.275 86.152 353.643 83.392 354.073 79.896C354.379 77.0747 354.747 73.7627 355.177 69.96C355.667 66.096 356.189 61.6493 356.741 56.62C357.354 51.5293 357.998 45.856 358.673 39.6H362.629C361.954 44.0773 361.341 48.1253 360.789 51.744C360.237 55.3013 359.715 58.6747 359.225 61.864C358.795 65.0533 358.366 68.2427 357.937 71.432C357.323 75.848 356.71 80.632 356.097 85.784C355.483 90.8747 354.778 96.9467 353.981 104H338.341C337.298 94.8613 336.378 87.1027 335.581 80.724C334.845 74.284 334.201 68.9787 333.649 64.808C333.158 60.6373 332.698 57.356 332.269 54.964C331.901 52.572 331.533 50.824 331.165 49.72C330.797 48.5547 330.398 47.8187 329.969 47.512C329.601 47.2053 329.171 47.052 328.681 47.052C328.19 47.052 327.761 47.2053 327.393 47.512C327.025 47.8187 326.657 48.5547 326.289 49.72C325.921 50.824 325.522 52.572 325.093 54.964C324.725 57.356 324.265 60.6373 323.713 64.808C323.161 68.9787 322.517 74.284 321.781 80.724C321.045 87.1027 320.155 94.8613 319.113 104H303.473ZM375.319 104C375.38 98.9093 375.411 94.7387 375.411 91.488C375.472 88.176 375.503 85.5387 375.503 83.576C375.564 81.552 375.595 79.896 375.595 78.608C375.595 77.32 375.595 76.1853 375.595 75.204C375.595 74.1613 375.595 72.9347 375.595 71.524C375.595 69.6227 375.595 67.9667 375.595 66.556C375.595 65.1453 375.595 63.704 375.595 62.232C375.595 60.76 375.564 58.9813 375.503 56.896C375.503 54.7493 375.472 52.02 375.411 48.708C375.411 45.396 375.38 41.1333 375.319 35.92H378.631C378.57 36.472 378.508 37.576 378.447 39.232C378.447 40.8267 378.416 42.728 378.355 44.936C378.355 47.144 378.324 49.4747 378.263 51.928C378.263 54.3813 378.263 56.712 378.263 58.92C378.263 61.0667 378.263 62.9067 378.263 64.44C378.263 66.1573 378.294 67.292 378.355 67.844C378.478 68.3347 378.723 68.58 379.091 68.58C379.398 68.58 379.674 68.4267 379.919 68.12C380.226 67.8133 380.716 67.1387 381.391 66.096C382.004 65.176 382.955 64.1027 384.243 62.876C385.531 61.6493 387.218 60.576 389.303 59.656C391.388 58.6747 393.934 58.184 396.939 58.184C400.312 58.184 403.134 58.828 405.403 60.116C407.672 61.404 409.39 63.1827 410.555 65.452C411.72 67.7213 412.303 70.3893 412.303 73.456C412.303 76.1547 412.303 78.4853 412.303 80.448C412.303 82.4107 412.303 84.1893 412.303 85.784C412.303 87.3787 412.303 89.004 412.303 90.66C412.364 92.316 412.426 94.1867 412.487 96.272C412.548 98.3573 412.61 100.933 412.671 104H409.359C409.482 100.749 409.543 98.0813 409.543 95.996C409.604 93.8493 409.635 92.0707 409.635 90.66C409.696 89.188 409.727 87.8693 409.727 86.704C409.788 85.4773 409.819 84.1587 409.819 82.748C409.819 81.3373 409.819 79.62 409.819 77.596C409.819 74.836 409.451 72.5973 408.715 70.88C407.979 69.1627 406.967 67.844 405.679 66.924C404.391 65.9427 402.888 65.268 401.171 64.9C399.515 64.532 397.706 64.348 395.743 64.348C392.738 64.348 390.131 64.7773 387.923 65.636C385.776 66.4333 383.967 67.5987 382.495 69.132C381.023 70.6653 379.95 72.536 379.275 74.744C378.6 76.8907 378.263 79.3133 378.263 82.012C378.263 83.484 378.263 84.7107 378.263 85.692C378.263 86.6733 378.263 87.808 378.263 89.096C378.324 90.384 378.386 92.1933 378.447 94.524C378.508 96.7933 378.57 99.952 378.631 104H375.319ZM446.464 105.38C442.17 105.38 438.582 104.736 435.7 103.448C432.878 102.16 430.609 100.381 428.892 98.112C427.236 95.7813 426.04 93.144 425.304 90.2C424.629 87.256 424.292 84.128 424.292 80.816C424.292 75.6027 425.181 71.34 426.96 68.028C428.8 64.6547 431.161 62.1707 434.044 60.576C436.988 58.9813 440.085 58.184 443.336 58.184C448.304 58.184 452.168 59.1653 454.928 61.128C457.688 63.0907 459.62 65.7893 460.724 69.224C461.889 72.6587 462.472 76.6147 462.472 81.092H426.684C426.745 83.6067 427.052 86.0293 427.604 88.36C428.217 90.6293 429.229 92.6533 430.64 94.432C432.05 96.1493 433.952 97.5293 436.344 98.572C438.797 99.5533 441.864 100.044 445.544 100.044C448.058 100.044 450.42 99.86 452.628 99.492C454.836 99.124 457.197 98.5413 459.712 97.744V103.448C457.197 104.245 454.897 104.767 452.812 105.012C450.726 105.257 448.61 105.38 446.464 105.38ZM459.712 78.24C459.712 73.64 458.301 70.0213 455.48 67.384C452.658 64.6853 448.61 63.336 443.336 63.336C440.392 63.336 437.693 63.9493 435.24 65.176C432.848 66.3413 430.885 68.0587 429.352 70.328C427.88 72.536 427.052 75.1733 426.868 78.24H459.712ZM472.62 104C472.681 99.8293 472.712 96.4867 472.712 93.972C472.773 91.396 472.804 89.3107 472.804 87.716C472.865 86.1213 472.896 84.7413 472.896 83.576C472.896 82.3493 472.896 81 472.896 79.528C472.896 78.056 472.896 76.7373 472.896 75.572C472.896 74.4067 472.865 73.18 472.804 71.892C472.804 70.5427 472.773 68.9173 472.712 67.016C472.712 65.0533 472.681 62.5693 472.62 59.564H475.84C475.778 60.6067 475.717 61.5267 475.656 62.324C475.656 63.1213 475.656 63.8267 475.656 64.44C475.656 66.1573 475.686 67.292 475.748 67.844C475.809 68.3347 476.024 68.58 476.392 68.58C476.698 68.58 476.974 68.4267 477.22 68.12C477.526 67.8133 478.017 67.1387 478.692 66.096C479.305 65.176 480.256 64.1027 481.544 62.876C482.832 61.6493 484.518 60.576 486.604 59.656C488.689 58.6747 491.234 58.184 494.24 58.184C497.613 58.184 500.434 58.828 502.704 60.116C504.973 61.404 506.69 63.1827 507.856 65.452C509.021 67.7213 509.604 70.3893 509.604 73.456C509.604 76.1547 509.604 78.4853 509.604 80.448C509.604 82.4107 509.604 84.1893 509.604 85.784C509.604 87.3787 509.604 89.004 509.604 90.66C509.665 92.316 509.726 94.1867 509.788 96.272C509.849 98.3573 509.91 100.933 509.972 104H506.66C506.721 100.995 506.782 98.48 506.844 96.456C506.905 94.432 506.936 92.684 506.936 91.212C506.997 89.6787 507.028 88.268 507.028 86.98C507.028 85.692 507.028 84.312 507.028 82.84C507.028 81.368 507.028 79.62 507.028 77.596C507.028 74.836 506.66 72.5973 505.924 70.88C505.188 69.1627 504.176 67.844 502.888 66.924C501.6 65.9427 500.128 65.268 498.472 64.9C496.816 64.532 495.006 64.348 493.044 64.348C490.038 64.348 487.432 64.7773 485.224 65.636C483.077 66.4333 481.268 67.5987 479.796 69.132C478.324 70.6653 477.25 72.536 476.576 74.744C475.901 76.8907 475.564 79.3133 475.564 82.012C475.564 83.484 475.564 84.772 475.564 85.876C475.564 86.9187 475.564 88.1453 475.564 89.556C475.625 90.9053 475.686 92.7147 475.748 94.984C475.809 97.192 475.87 100.197 475.932 104H472.62ZM539.257 104V99.492C540.177 99.492 541.005 99.5227 541.741 99.584C542.477 99.584 543.152 99.584 543.765 99.584C545.482 99.584 546.648 99.5533 547.261 99.492C547.874 99.3693 548.334 99.1853 548.641 98.94C548.886 98.756 549.07 98.4493 549.193 98.02C549.316 97.5907 549.408 96.824 549.469 95.72C549.592 94.616 549.653 92.9907 549.653 90.844C549.714 88.6973 549.745 85.784 549.745 82.104C549.745 78.5467 549.714 75.6947 549.653 73.548C549.653 71.4013 549.592 69.8067 549.469 68.764C549.408 67.66 549.316 66.8933 549.193 66.464C549.07 66.0347 548.886 65.6973 548.641 65.452C548.334 65.2067 547.905 65.0533 547.353 64.992C546.801 64.9307 545.758 64.9 544.225 64.9C543.673 64.9 543.09 64.9 542.477 64.9C541.925 64.9 541.281 64.9 540.545 64.9V59.564H552.321C552.321 60.6067 552.29 62.1093 552.229 64.072C552.229 66.0347 552.198 68.1507 552.137 70.42C552.137 72.628 552.137 74.7133 552.137 76.676C552.137 78.6387 552.137 80.2027 552.137 81.368C552.137 85.1707 552.137 88.2067 552.137 90.476C552.198 92.7453 552.26 94.4627 552.321 95.628C552.444 96.7933 552.566 97.5907 552.689 98.02C552.873 98.4493 553.088 98.756 553.333 98.94C553.64 99.1853 554.069 99.3693 554.621 99.492C555.234 99.5533 556.43 99.584 558.209 99.584C558.822 99.584 559.436 99.584 560.049 99.584C560.724 99.5227 561.429 99.492 562.165 99.492V104H539.257ZM550.205 48.432C547.261 48.432 545.789 46.9293 545.789 43.924C545.789 40.8573 547.261 39.324 550.205 39.324C552.965 39.324 554.345 40.8573 554.345 43.924C554.345 46.9293 552.965 48.432 550.205 48.432ZM571.358 104C571.419 99.8293 571.45 96.4867 571.45 93.972C571.511 91.396 571.542 89.3107 571.542 87.716C571.603 86.1213 571.634 84.7413 571.634 83.576C571.634 82.3493 571.634 81 571.634 79.528C571.634 78.056 571.634 76.7373 571.634 75.572C571.634 74.4067 571.603 73.18 571.542 71.892C571.542 70.5427 571.511 68.9173 571.45 67.016C571.45 65.0533 571.419 62.5693 571.358 59.564H574.578C574.517 60.6067 574.455 61.5267 574.394 62.324C574.394 63.1213 574.394 63.8267 574.394 64.44C574.394 66.1573 574.425 67.292 574.486 67.844C574.547 68.3347 574.762 68.58 575.13 68.58C575.437 68.58 575.713 68.4267 575.958 68.12C576.265 67.8133 576.755 67.1387 577.43 66.096C578.043 65.176 578.994 64.1027 580.282 62.876C581.57 61.6493 583.257 60.576 585.342 59.656C587.427 58.6747 589.973 58.184 592.978 58.184C596.351 58.184 599.173 58.828 601.442 60.116C603.711 61.404 605.429 63.1827 606.594 65.452C607.759 67.7213 608.342 70.3893 608.342 73.456C608.342 76.1547 608.342 78.4853 608.342 80.448C608.342 82.4107 608.342 84.1893 608.342 85.784C608.342 87.3787 608.342 89.004 608.342 90.66C608.403 92.316 608.465 94.1867 608.526 96.272C608.587 98.3573 608.649 100.933 608.71 104H605.398C605.459 100.995 605.521 98.48 605.582 96.456C605.643 94.432 605.674 92.684 605.674 91.212C605.735 89.6787 605.766 88.268 605.766 86.98C605.766 85.692 605.766 84.312 605.766 82.84C605.766 81.368 605.766 79.62 605.766 77.596C605.766 74.836 605.398 72.5973 604.662 70.88C603.926 69.1627 602.914 67.844 601.626 66.924C600.338 65.9427 598.866 65.268 597.21 64.9C595.554 64.532 593.745 64.348 591.782 64.348C588.777 64.348 586.17 64.7773 583.962 65.636C581.815 66.4333 580.006 67.5987 578.534 69.132C577.062 70.6653 575.989 72.536 575.314 74.744C574.639 76.8907 574.302 79.3133 574.302 82.012C574.302 83.484 574.302 84.772 574.302 85.876C574.302 86.9187 574.302 88.1453 574.302 89.556C574.363 90.9053 574.425 92.7147 574.486 94.984C574.547 97.192 574.609 100.197 574.67 104H571.358ZM219.896 226C220.107 218.416 220.265 212.201 220.37 207.356C220.581 202.511 220.686 198.508 220.686 195.348C220.791 192.083 220.844 189.291 220.844 186.974C220.949 184.551 221.002 182.129 221.002 179.706C221.002 177.178 221.002 174.176 221.002 170.7C221.002 167.224 221.002 164.275 221.002 161.852C221.002 159.324 220.949 156.901 220.844 154.584C220.844 152.161 220.791 149.37 220.686 146.21C220.686 142.945 220.581 138.889 220.37 134.044C220.265 129.199 220.107 122.984 219.896 115.4H230.166C230.061 118.981 229.955 122.036 229.85 124.564C229.85 126.987 229.797 129.146 229.692 131.042C229.692 132.833 229.692 134.413 229.692 135.782C229.692 137.151 229.692 138.573 229.692 140.048C229.692 141.417 229.692 142.945 229.692 144.63C229.692 146.315 229.955 147.632 230.482 148.58C231.114 149.528 232.483 150.265 234.59 150.792C236.697 151.213 239.962 151.477 244.386 151.582C248.915 151.687 255.13 151.74 263.03 151.74C270.825 151.74 276.934 151.687 281.358 151.582C285.887 151.477 289.205 151.213 291.312 150.792C293.419 150.265 294.735 149.528 295.262 148.58C295.894 147.632 296.21 146.315 296.21 144.63C296.21 142.945 296.21 141.417 296.21 140.048C296.21 138.573 296.21 137.151 296.21 135.782C296.21 134.413 296.157 132.833 296.052 131.042C296.052 129.146 295.999 126.987 295.894 124.564C295.894 122.036 295.841 118.981 295.736 115.4H306.006C305.795 122.984 305.637 129.199 305.532 134.044C305.427 138.889 305.321 142.945 305.216 146.21C305.216 149.37 305.163 152.161 305.058 154.584C305.058 156.901 305.058 159.324 305.058 161.852C305.058 164.275 305.058 167.224 305.058 170.7C305.058 174.176 305.058 177.178 305.058 179.706C305.058 182.129 305.058 184.551 305.058 186.974C305.163 189.291 305.216 192.083 305.216 195.348C305.321 198.508 305.427 202.511 305.532 207.356C305.743 212.201 305.901 218.416 306.006 226H295.578C295.683 222.208 295.736 219.101 295.736 216.678C295.841 214.15 295.894 211.991 295.894 210.2C295.999 208.409 296.052 206.829 296.052 205.46C296.052 204.091 296.052 202.721 296.052 201.352C296.052 199.983 296.052 198.403 296.052 196.612C296.052 193.663 295.736 191.398 295.104 189.818C294.577 188.133 293.261 186.921 291.154 186.184C289.047 185.341 285.729 184.815 281.2 184.604C276.776 184.393 270.719 184.288 263.03 184.288C255.235 184.288 249.126 184.393 244.702 184.604C240.278 184.815 237.013 185.341 234.906 186.184C232.799 186.921 231.43 188.133 230.798 189.818C230.271 191.398 230.008 193.663 230.008 196.612C230.008 198.403 230.008 199.983 230.008 201.352C230.008 202.721 230.008 204.091 230.008 205.46C230.008 206.829 230.008 208.409 230.008 210.2C230.113 211.991 230.166 214.15 230.166 216.678C230.271 219.101 230.377 222.208 230.482 226H219.896ZM320.665 226V207.356C322.351 207.461 323.983 207.567 325.563 207.672C327.249 207.672 328.987 207.672 330.777 207.672C333.727 207.672 335.939 207.567 337.413 207.356C338.888 207.145 339.889 206.777 340.415 206.25C340.942 205.829 341.311 205.302 341.521 204.67C341.837 203.933 342.048 202.985 342.153 201.826C342.259 200.562 342.311 198.982 342.311 197.086C342.417 195.085 342.469 192.609 342.469 189.66C342.469 186.816 342.417 184.393 342.311 182.392C342.311 180.391 342.259 178.811 342.153 177.652C342.048 176.388 341.837 175.387 341.521 174.65C341.311 173.913 340.942 173.333 340.415 172.912C339.889 172.385 338.941 172.017 337.571 171.806C336.307 171.595 334.464 171.49 332.041 171.49C330.356 171.49 328.776 171.49 327.301 171.49C325.932 171.49 324.405 171.595 322.719 171.806V148.106H349.895C349.79 152.214 349.685 155.953 349.579 159.324C349.579 162.589 349.527 165.591 349.421 168.33C349.421 171.069 349.421 173.702 349.421 176.23C349.421 178.653 349.421 181.075 349.421 183.498C349.421 188.027 349.421 191.714 349.421 194.558C349.527 197.297 349.632 199.456 349.737 201.036C349.948 202.616 350.159 203.775 350.369 204.512C350.685 205.249 351.107 205.829 351.633 206.25C352.265 206.777 353.213 207.145 354.477 207.356C355.741 207.567 357.848 207.672 360.797 207.672C362.377 207.672 363.905 207.672 365.379 207.672C366.959 207.567 368.539 207.461 370.119 207.356V226H320.665ZM344.365 133.412C336.149 133.412 332.041 130.094 332.041 123.458C332.041 116.717 336.149 113.346 344.365 113.346C352.265 113.346 356.215 116.717 356.215 123.458C356.215 130.094 352.265 133.412 344.365 133.412ZM379.659 224.578V203.722C384.925 205.407 389.876 206.671 394.511 207.514C399.145 208.251 403.464 208.62 407.467 208.62C412.417 208.62 416.104 208.041 418.527 206.882C420.949 205.618 422.161 203.827 422.161 201.51C422.161 199.93 421.687 198.561 420.739 197.402C419.791 196.138 418.105 194.927 415.683 193.768C413.365 192.609 409.995 191.345 405.571 189.976C399.04 187.975 393.773 186.026 389.771 184.13C385.873 182.129 383.082 179.811 381.397 177.178C379.711 174.545 378.869 171.174 378.869 167.066C378.869 160.219 381.555 155.058 386.927 151.582C392.404 148.106 400.251 146.368 410.469 146.368C412.47 146.368 414.735 146.526 417.263 146.842C419.791 147.053 422.371 147.369 425.005 147.79C427.638 148.211 430.008 148.633 432.115 149.054V172.122C427.269 170.963 422.898 170.068 419.001 169.436C415.103 168.804 411.469 168.488 408.099 168.488C403.464 168.488 400.041 169.015 397.829 170.068C395.722 171.121 394.669 172.701 394.669 174.808C394.669 176.809 395.827 178.547 398.145 180.022C400.462 181.391 404.623 183.024 410.627 184.92C416.736 186.816 421.581 188.817 425.163 190.924C428.849 193.031 431.43 195.401 432.905 198.034C434.379 200.562 435.117 203.564 435.117 207.04C435.117 213.36 432.536 218.416 427.375 222.208C422.319 225.895 414.945 227.738 405.255 227.738C399.883 227.738 395.09 227.422 390.877 226.79C386.663 226.263 382.924 225.526 379.659 224.578ZM478.697 227.896C473.22 227.896 468.743 227.053 465.267 225.368C461.897 223.577 459.263 220.786 457.367 216.994C456.525 215.414 455.893 213.676 455.471 211.78C455.05 209.779 454.787 207.461 454.681 204.828C454.576 202.195 454.523 199.087 454.523 195.506C454.523 193.294 454.523 191.029 454.523 188.712C454.523 186.395 454.523 184.13 454.523 181.918C454.523 179.601 454.523 177.599 454.523 175.914C454.523 174.123 454.523 172.754 454.523 171.806H442.041V148.106H454.365L453.891 125.828H462.581L461.949 148.106H488.493V171.806H461.949C461.949 173.281 461.949 174.65 461.949 175.914C461.949 177.178 461.949 178.389 461.949 179.548C461.949 183.34 462.002 186.658 462.107 189.502C462.213 192.241 462.423 194.558 462.739 196.454C463.055 198.35 463.582 199.983 464.319 201.352C465.162 203.353 466.479 204.828 468.269 205.776C470.06 206.724 472.325 207.198 475.063 207.198C477.065 207.198 479.171 206.987 481.383 206.566C483.701 206.039 485.913 205.355 488.019 204.512V227.106C486.65 227.317 485.123 227.475 483.437 227.58C481.857 227.791 480.277 227.896 478.697 227.896ZM534.164 227.738C526.053 227.738 519.259 226.263 513.782 223.314C508.41 220.259 504.355 215.73 501.616 209.726C498.983 203.722 497.666 196.138 497.666 186.974C497.666 177.915 498.983 170.384 501.616 164.38C504.355 158.271 508.41 153.741 513.782 150.792C519.259 147.843 526.053 146.368 534.164 146.368C542.275 146.368 549.016 147.843 554.388 150.792C559.865 153.741 563.973 158.271 566.712 164.38C569.451 170.384 570.82 177.915 570.82 186.974C570.82 196.138 569.451 203.722 566.712 209.726C563.973 215.73 559.865 220.259 554.388 223.314C549.016 226.263 542.275 227.738 534.164 227.738ZM534.164 205.934C541.116 205.934 546.751 205.197 551.07 203.722C555.389 202.247 558.496 200.088 560.392 197.244C562.393 194.4 563.394 190.977 563.394 186.974C563.394 182.971 562.393 179.601 560.392 176.862C558.496 174.018 555.389 171.859 551.07 170.384C546.751 168.909 541.116 168.172 534.164 168.172C527.107 168.172 521.419 168.909 517.1 170.384C512.887 171.859 509.832 174.018 507.936 176.862C506.04 179.601 505.092 182.971 505.092 186.974C505.092 190.977 506.04 194.4 507.936 197.244C509.832 200.088 512.887 202.247 517.1 203.722C521.419 205.197 527.107 205.934 534.164 205.934ZM586.641 226C586.746 222.524 586.799 219.048 586.799 215.572C586.904 212.096 586.957 208.62 586.957 205.144C587.062 201.668 587.115 198.35 587.115 195.19C587.115 191.925 587.115 188.87 587.115 186.026C587.115 183.182 587.115 180.127 587.115 176.862C587.115 173.597 587.062 170.279 586.957 166.908C586.957 163.432 586.904 160.114 586.799 156.954C586.799 153.689 586.746 150.739 586.641 148.106H595.805C595.7 150.002 595.594 151.951 595.489 153.952C595.384 155.953 595.331 157.586 595.331 158.85C595.331 160.851 595.384 162.273 595.489 163.116C595.594 163.959 596.016 164.38 596.753 164.38C597.28 164.38 597.912 163.959 598.649 163.116C599.386 162.273 600.545 160.693 602.125 158.376C603.178 156.796 604.706 155.111 606.707 153.32C608.708 151.424 611.236 149.791 614.291 148.422C617.451 147.053 621.348 146.368 625.983 146.368C627.879 146.368 629.722 146.526 631.513 146.842C633.409 147.053 635.147 147.369 636.727 147.79V175.282C634.726 174.966 632.25 174.65 629.301 174.334C626.352 174.018 622.086 173.86 616.503 173.86C611.658 173.86 607.655 174.597 604.495 176.072C601.44 177.547 599.123 179.759 597.543 182.708C595.963 185.657 595.173 189.449 595.173 194.084C595.173 195.98 595.173 198.034 595.173 200.246C595.173 202.458 595.173 204.881 595.173 207.514C595.278 210.147 595.384 212.991 595.489 216.046C595.594 219.101 595.7 222.419 595.805 226H586.641ZM645.945 256.494V232.952C646.893 233.373 648.526 234.058 650.843 235.006C653.161 236.059 656.005 236.955 659.375 237.692C662.746 238.535 666.38 238.956 670.277 238.956C674.912 238.956 678.967 238.271 682.443 236.902C686.025 235.533 688.921 233.742 691.133 231.53C692.292 230.266 693.24 228.949 693.977 227.58C694.715 226.211 695.241 224.578 695.557 222.682H655.899C655.057 216.889 654.214 211.411 653.371 206.25C652.529 200.983 651.581 195.559 650.527 189.976C649.579 184.288 648.473 178.073 647.209 171.332C646.051 164.485 644.629 156.691 642.943 147.948H653.213C653.845 153.741 654.477 159.113 655.109 164.064C655.847 169.015 656.531 173.491 657.163 177.494C657.795 181.391 658.375 184.657 658.901 187.29C659.428 189.923 659.849 191.767 660.165 192.82C660.692 194.4 661.429 195.611 662.377 196.454C663.325 197.191 665.063 197.718 667.591 198.034C670.119 198.245 674.017 198.35 679.283 198.35C684.655 198.35 688.553 198.245 690.975 198.034C693.503 197.718 695.241 197.191 696.189 196.454C697.137 195.611 697.822 194.4 698.243 192.82C698.559 191.661 698.981 189.765 699.507 187.132C700.139 184.499 700.771 181.233 701.403 177.336C702.141 173.439 702.825 169.015 703.457 164.064C704.195 159.113 704.879 153.741 705.511 147.948H715.939C714.675 155.005 713.411 161.747 712.147 168.172C710.989 174.492 709.883 180.443 708.829 186.026C707.881 191.503 706.986 196.507 706.143 201.036C705.406 205.46 704.774 209.305 704.247 212.57C703.721 215.835 703.352 218.416 703.141 220.312C702.193 226.527 701.14 231.53 699.981 235.322C698.823 239.219 697.453 242.327 695.873 244.644C694.293 247.067 692.397 249.331 690.185 251.438C687.236 254.282 683.497 256.283 678.967 257.442C674.543 258.601 669.751 259.18 664.589 259.18C660.481 259.18 656.742 258.864 653.371 258.232C650.001 257.6 647.525 257.021 645.945 256.494Z" fill="black"/>
<path d="M303.008 290.915C299.104 290.915 296.054 289.553 293.858 286.828C291.662 284.103 290.564 280.26 290.564 275.299C290.564 270.378 291.662 266.535 293.858 263.77C296.054 261.005 299.104 259.622 303.008 259.622C304.878 259.622 306.444 259.886 307.705 260.415C308.965 260.903 309.982 261.513 310.755 262.245C311.527 262.977 312.117 263.668 312.524 264.319C312.971 264.97 313.276 265.397 313.439 265.6C313.642 265.803 313.845 265.905 314.049 265.905C314.252 265.905 314.374 265.763 314.415 265.478C314.455 265.153 314.476 264.563 314.476 263.709C314.476 263.343 314.455 262.875 314.415 262.306C314.415 261.737 314.394 261.147 314.354 260.537H316.489C316.448 262.896 316.407 264.827 316.367 266.332C316.326 267.796 316.285 269.016 316.245 269.992C316.245 270.968 316.245 271.863 316.245 272.676C316.245 273.449 316.245 274.323 316.245 275.299C316.245 276.316 316.245 277.21 316.245 277.983C316.245 278.756 316.245 279.63 316.245 280.606C316.285 281.541 316.326 282.761 316.367 284.266C316.407 285.73 316.448 287.641 316.489 290H314.354C314.394 289.39 314.415 288.8 314.415 288.231C314.455 287.621 314.476 287.092 314.476 286.645C314.476 285.872 314.455 285.344 314.415 285.059C314.374 284.774 314.252 284.632 314.049 284.632C313.845 284.632 313.642 284.734 313.439 284.937C313.276 285.14 312.971 285.588 312.524 286.279C312.117 286.889 311.527 287.56 310.755 288.292C309.982 289.024 308.965 289.634 307.705 290.122C306.444 290.651 304.878 290.915 303.008 290.915ZM303.191 287.377C306.891 287.377 309.718 286.36 311.67 284.327C313.662 282.294 314.659 279.284 314.659 275.299C314.659 271.314 313.662 268.325 311.67 266.332C309.718 264.299 306.891 263.282 303.191 263.282C299.571 263.282 296.826 264.339 294.956 266.454C293.085 268.569 292.15 271.517 292.15 275.299C292.15 279.081 293.085 282.05 294.956 284.205C296.826 286.32 299.571 287.377 303.191 287.377ZM347.159 290.915C345.532 290.915 344.149 290.63 343.011 290.061C341.913 289.532 341.018 288.678 340.327 287.499C340.042 286.93 339.818 286.32 339.656 285.669C339.493 284.978 339.371 284.083 339.29 282.985C339.249 281.846 339.229 280.301 339.229 278.349C339.229 277.007 339.229 275.563 339.229 274.018C339.229 272.432 339.229 270.948 339.229 269.565C339.229 268.142 339.229 266.942 339.229 265.966C339.229 264.949 339.229 264.319 339.229 264.075H335.264V260.537H339.229L338.985 251.326H341.181L340.998 260.537H350.636V264.075H340.876C340.876 265.051 340.876 265.966 340.876 266.82C340.876 267.674 340.876 268.487 340.876 269.26C340.876 272.31 340.876 274.811 340.876 276.763C340.916 278.674 340.957 280.179 340.998 281.277C341.079 282.375 341.201 283.229 341.364 283.839C341.689 285.181 342.319 286.137 343.255 286.706C344.19 287.235 345.268 287.499 346.488 287.499C347.22 287.499 347.931 287.438 348.623 287.316C349.314 287.153 349.924 286.991 350.453 286.828V290.549C350.127 290.63 349.66 290.712 349.05 290.793C348.48 290.874 347.85 290.915 347.159 290.915ZM357.396 290C357.437 287.235 357.457 285.018 357.457 283.351C357.498 281.643 357.518 280.26 357.518 279.203C357.559 278.146 357.579 277.231 357.579 276.458C357.579 275.645 357.579 274.75 357.579 273.774C357.579 272.839 357.579 271.985 357.579 271.212C357.579 270.439 357.559 269.606 357.518 268.711C357.518 267.816 357.498 266.739 357.457 265.478C357.457 264.217 357.437 262.57 357.396 260.537H359.592C359.552 261.228 359.511 261.92 359.47 262.611C359.43 263.302 359.409 263.872 359.409 264.319C359.409 265.458 359.43 266.19 359.47 266.515C359.511 266.84 359.653 267.003 359.897 267.003C360.101 267.003 360.304 266.881 360.507 266.637C360.751 266.393 361.097 265.925 361.544 265.234C361.91 264.665 362.48 263.953 363.252 263.099C364.066 262.204 365.123 261.411 366.424 260.72C367.726 259.988 369.332 259.622 371.243 259.622C371.894 259.622 372.524 259.683 373.134 259.805C373.744 259.886 374.253 259.988 374.659 260.11V264.319C374.171 264.197 373.602 264.095 372.951 264.014C372.341 263.933 371.447 263.892 370.267 263.892C367.827 263.892 365.794 264.441 364.167 265.539C362.581 266.596 361.361 268.02 360.507 269.809C359.694 271.558 359.287 273.428 359.287 275.421C359.287 276.397 359.287 277.251 359.287 277.983C359.287 278.674 359.287 279.488 359.287 280.423C359.328 281.318 359.369 282.517 359.409 284.022C359.45 285.486 359.511 287.479 359.592 290H357.396ZM376.799 290V287.011C377.409 287.011 377.958 287.031 378.446 287.072C378.934 287.072 379.381 287.072 379.788 287.072C380.926 287.072 381.699 287.052 382.106 287.011C382.512 286.93 382.817 286.808 383.021 286.645C383.183 286.523 383.305 286.32 383.387 286.035C383.468 285.75 383.529 285.242 383.57 284.51C383.651 283.778 383.692 282.7 383.692 281.277C383.732 279.854 383.753 277.922 383.753 275.482C383.753 273.123 383.732 271.232 383.692 269.809C383.692 268.386 383.651 267.328 383.57 266.637C383.529 265.905 383.468 265.397 383.387 265.112C383.305 264.827 383.183 264.604 383.021 264.441C382.817 264.278 382.533 264.177 382.167 264.136C381.801 264.095 381.109 264.075 380.093 264.075C379.727 264.075 379.34 264.075 378.934 264.075C378.568 264.075 378.141 264.075 377.653 264.075V260.537H385.461C385.461 261.228 385.44 262.225 385.4 263.526C385.4 264.827 385.379 266.23 385.339 267.735C385.339 269.199 385.339 270.582 385.339 271.883C385.339 273.184 385.339 274.221 385.339 274.994C385.339 277.515 385.339 279.528 385.339 281.033C385.379 282.538 385.42 283.676 385.461 284.449C385.542 285.222 385.623 285.75 385.705 286.035C385.827 286.32 385.969 286.523 386.132 286.645C386.335 286.808 386.62 286.93 386.986 287.011C387.392 287.052 388.185 287.072 389.365 287.072C389.771 287.072 390.178 287.072 390.585 287.072C391.032 287.031 391.5 287.011 391.988 287.011V290H376.799ZM384.058 253.156C382.106 253.156 381.13 252.16 381.13 250.167C381.13 248.134 382.106 247.117 384.058 247.117C385.888 247.117 386.803 248.134 386.803 250.167C386.803 252.16 385.888 253.156 384.058 253.156ZM401.639 290C400.867 286.665 400.094 283.432 399.321 280.301C398.549 277.129 397.735 273.937 396.881 270.724C396.027 267.471 395.072 264.075 394.014 260.537H396.698C397.349 263.506 397.959 266.291 398.528 268.894C399.098 271.497 399.667 274.018 400.236 276.458C400.806 278.898 401.416 281.379 402.066 283.9C402.229 284.551 402.432 285.039 402.676 285.364C402.961 285.649 403.429 285.832 404.079 285.913C404.73 285.994 405.706 286.035 407.007 286.035C408.349 286.035 409.346 285.994 409.996 285.913C410.647 285.832 411.094 285.649 411.338 285.364C411.623 285.039 411.847 284.551 412.009 283.9C412.619 281.379 413.209 278.898 413.778 276.458C414.388 274.018 414.978 271.497 415.547 268.894C416.117 266.291 416.727 263.506 417.377 260.537H420.061C419.045 264.075 418.089 267.471 417.194 270.724C416.34 273.937 415.527 277.129 414.754 280.301C413.982 283.432 413.209 286.665 412.436 290H401.639ZM424.336 290V287.011C424.946 287.011 425.495 287.031 425.983 287.072C426.471 287.072 426.918 287.072 427.325 287.072C428.463 287.072 429.236 287.052 429.643 287.011C430.049 286.93 430.354 286.808 430.558 286.645C430.72 286.523 430.842 286.32 430.924 286.035C431.005 285.75 431.066 285.242 431.107 284.51C431.188 283.778 431.229 282.7 431.229 281.277C431.269 279.854 431.29 277.922 431.29 275.482C431.29 273.123 431.269 271.232 431.229 269.809C431.229 268.386 431.188 267.328 431.107 266.637C431.066 265.905 431.005 265.397 430.924 265.112C430.842 264.827 430.72 264.604 430.558 264.441C430.354 264.278 430.07 264.177 429.704 264.136C429.338 264.095 428.646 264.075 427.63 264.075C427.264 264.075 426.877 264.075 426.471 264.075C426.105 264.075 425.678 264.075 425.19 264.075V260.537H432.998C432.998 261.228 432.977 262.225 432.937 263.526C432.937 264.827 432.916 266.23 432.876 267.735C432.876 269.199 432.876 270.582 432.876 271.883C432.876 273.184 432.876 274.221 432.876 274.994C432.876 277.515 432.876 279.528 432.876 281.033C432.916 282.538 432.957 283.676 432.998 284.449C433.079 285.222 433.16 285.75 433.242 286.035C433.364 286.32 433.506 286.523 433.669 286.645C433.872 286.808 434.157 286.93 434.523 287.011C434.929 287.052 435.722 287.072 436.902 287.072C437.308 287.072 437.715 287.072 438.122 287.072C438.569 287.031 439.037 287.011 439.525 287.011V290H424.336ZM431.595 253.156C429.643 253.156 428.667 252.16 428.667 250.167C428.667 248.134 429.643 247.117 431.595 247.117C433.425 247.117 434.34 248.134 434.34 250.167C434.34 252.16 433.425 253.156 431.595 253.156ZM455.805 290.915C451.901 290.915 448.851 289.553 446.655 286.828C444.459 284.103 443.361 280.26 443.361 275.299C443.361 270.378 444.459 266.535 446.655 263.77C448.851 261.005 451.901 259.622 455.805 259.622C457.676 259.622 459.242 259.886 460.502 260.415C461.763 260.903 462.78 261.513 463.552 262.245C464.325 262.977 464.915 263.668 465.321 264.319C465.769 264.97 466.074 265.397 466.236 265.6C466.44 265.803 466.643 265.905 466.846 265.905C467.05 265.905 467.172 265.763 467.212 265.478C467.253 265.153 467.273 264.563 467.273 263.709C467.273 263.343 467.253 262.875 467.212 262.306C467.212 261.737 467.192 261.147 467.151 260.537H469.286C469.246 262.896 469.205 264.827 469.164 266.332C469.124 267.796 469.083 269.016 469.042 269.992C469.042 270.968 469.042 271.863 469.042 272.676C469.042 273.449 469.042 274.323 469.042 275.299C469.042 276.316 469.042 277.21 469.042 277.983C469.042 278.756 469.042 279.63 469.042 280.606C469.083 281.541 469.124 282.761 469.164 284.266C469.205 285.73 469.246 287.641 469.286 290H467.151C467.192 289.39 467.212 288.8 467.212 288.231C467.253 287.621 467.273 287.092 467.273 286.645C467.273 285.872 467.253 285.344 467.212 285.059C467.172 284.774 467.05 284.632 466.846 284.632C466.643 284.632 466.44 284.734 466.236 284.937C466.074 285.14 465.769 285.588 465.321 286.279C464.915 286.889 464.325 287.56 463.552 288.292C462.78 289.024 461.763 289.634 460.502 290.122C459.242 290.651 457.676 290.915 455.805 290.915ZM455.988 287.377C459.689 287.377 462.515 286.36 464.467 284.327C466.46 282.294 467.456 279.284 467.456 275.299C467.456 271.314 466.46 268.325 464.467 266.332C462.515 264.299 459.689 263.282 455.988 263.282C452.369 263.282 449.624 264.339 447.753 266.454C445.883 268.569 444.947 271.517 444.947 275.299C444.947 279.081 445.883 282.05 447.753 284.205C449.624 286.32 452.369 287.377 455.988 287.377ZM500.933 302.627C499.347 302.627 497.781 302.525 496.236 302.322C494.731 302.119 493.226 301.773 491.722 301.285V297.442C492.82 297.767 493.918 298.052 495.016 298.296C496.114 298.581 497.171 298.784 498.188 298.906C499.204 299.028 500.16 299.089 501.055 299.089C504.064 299.089 506.484 298.52 508.314 297.381C510.144 296.242 511.465 294.697 512.279 292.745C513.092 290.834 513.499 288.658 513.499 286.218C513.499 285.445 513.478 284.917 513.438 284.632C513.397 284.347 513.275 284.205 513.072 284.205C512.868 284.205 512.645 284.307 512.401 284.51C512.197 284.713 511.852 285.14 511.364 285.791C510.916 286.401 510.306 287.072 509.534 287.804C508.761 288.536 507.765 289.166 506.545 289.695C505.325 290.224 503.84 290.488 502.092 290.488C498.188 290.488 495.138 289.146 492.942 286.462C490.746 283.778 489.648 279.976 489.648 275.055C489.648 270.175 490.725 266.393 492.881 263.709C495.036 260.984 498.106 259.622 502.092 259.622C503.962 259.622 505.508 259.886 506.728 260.415C507.988 260.903 509.005 261.513 509.778 262.245C510.55 262.977 511.14 263.668 511.547 264.319C511.994 264.97 512.299 265.397 512.462 265.6C512.665 265.803 512.868 265.905 513.072 265.905C513.275 265.905 513.397 265.763 513.438 265.478C513.519 265.153 513.56 264.563 513.56 263.709C513.56 263.343 513.539 262.875 513.499 262.306C513.499 261.737 513.478 261.147 513.438 260.537H515.512C515.471 262.489 515.41 264.563 515.329 266.759C515.288 268.914 515.247 271.009 515.207 273.042C515.207 275.075 515.207 276.844 515.207 278.349C515.207 279.488 515.207 280.443 515.207 281.216C515.207 281.948 515.207 282.721 515.207 283.534C515.207 284.307 515.207 285.344 515.207 286.645C515.207 291.81 514.007 295.754 511.608 298.479C509.249 301.244 505.691 302.627 500.933 302.627ZM502.275 287.194C504.511 287.194 506.484 286.747 508.192 285.852C509.94 284.957 511.303 283.615 512.279 281.826C513.255 280.037 513.743 277.841 513.743 275.238C513.743 271.293 512.767 268.304 510.815 266.271C508.903 264.238 506.057 263.221 502.275 263.221C498.615 263.221 495.849 264.299 493.979 266.454C492.149 268.569 491.234 271.497 491.234 275.238C491.234 278.979 492.149 281.907 493.979 284.022C495.849 286.137 498.615 287.194 502.275 287.194ZM535.928 290.915C532.024 290.915 528.974 289.553 526.778 286.828C524.582 284.103 523.484 280.26 523.484 275.299C523.484 270.378 524.582 266.535 526.778 263.77C528.974 261.005 532.024 259.622 535.928 259.622C537.798 259.622 539.364 259.886 540.625 260.415C541.885 260.903 542.902 261.513 543.675 262.245C544.447 262.977 545.037 263.668 545.444 264.319C545.891 264.97 546.196 265.397 546.359 265.6C546.562 265.803 546.765 265.905 546.969 265.905C547.172 265.905 547.294 265.763 547.335 265.478C547.375 265.153 547.396 264.563 547.396 263.709C547.396 263.343 547.375 262.875 547.335 262.306C547.335 261.737 547.314 261.147 547.274 260.537H549.409C549.368 262.896 549.327 264.827 549.287 266.332C549.246 267.796 549.205 269.016 549.165 269.992C549.165 270.968 549.165 271.863 549.165 272.676C549.165 273.449 549.165 274.323 549.165 275.299C549.165 276.316 549.165 277.21 549.165 277.983C549.165 278.756 549.165 279.63 549.165 280.606C549.205 281.541 549.246 282.761 549.287 284.266C549.327 285.73 549.368 287.641 549.409 290H547.274C547.314 289.39 547.335 288.8 547.335 288.231C547.375 287.621 547.396 287.092 547.396 286.645C547.396 285.872 547.375 285.344 547.335 285.059C547.294 284.774 547.172 284.632 546.969 284.632C546.765 284.632 546.562 284.734 546.359 284.937C546.196 285.14 545.891 285.588 545.444 286.279C545.037 286.889 544.447 287.56 543.675 288.292C542.902 289.024 541.885 289.634 540.625 290.122C539.364 290.651 537.798 290.915 535.928 290.915ZM536.111 287.377C539.811 287.377 542.638 286.36 544.59 284.327C546.582 282.294 547.579 279.284 547.579 275.299C547.579 271.314 546.582 268.325 544.59 266.332C542.638 264.299 539.811 263.282 536.111 263.282C532.491 263.282 529.746 264.339 527.876 266.454C526.005 268.569 525.07 271.517 525.07 275.299C525.07 279.081 526.005 282.05 527.876 284.205C529.746 286.32 532.491 287.377 536.111 287.377ZM559.459 290C559.499 287.763 559.52 285.893 559.52 284.388C559.56 282.843 559.581 281.562 559.581 280.545C559.621 279.488 559.642 278.593 559.642 277.861C559.682 277.129 559.703 276.438 559.703 275.787C559.703 275.136 559.703 274.404 559.703 273.591C559.703 272.615 559.703 271.761 559.703 271.029C559.703 270.256 559.682 269.443 559.642 268.589C559.642 267.735 559.621 266.678 559.581 265.417C559.54 264.156 559.499 262.53 559.459 260.537H561.533C561.492 261.147 561.451 261.737 561.411 262.306C561.411 262.875 561.411 263.363 561.411 263.77C561.411 264.909 561.431 265.661 561.472 266.027C561.512 266.352 561.634 266.515 561.838 266.515C562.041 266.515 562.224 266.413 562.387 266.21C562.549 265.966 562.854 265.519 563.302 264.868C563.708 264.258 564.318 263.546 565.132 262.733C565.945 261.92 566.962 261.208 568.182 260.598C569.442 259.947 570.886 259.622 572.513 259.622C574.302 259.622 575.746 259.927 576.844 260.537C577.942 261.147 578.796 261.899 579.406 262.794C580.016 263.648 580.463 264.522 580.748 265.417C580.992 266.23 581.154 266.739 581.236 266.942C581.358 267.145 581.52 267.247 581.724 267.247C581.886 267.247 582.069 267.145 582.273 266.942C582.476 266.698 582.781 266.21 583.188 265.478C583.757 264.583 584.489 263.689 585.384 262.794C586.319 261.899 587.437 261.147 588.739 260.537C590.04 259.927 591.504 259.622 593.131 259.622C594.961 259.622 596.547 260.049 597.889 260.903C599.231 261.757 600.268 262.957 601 264.502C601.772 266.007 602.159 267.776 602.159 269.809C602.159 271.598 602.159 273.144 602.159 274.445C602.159 275.706 602.159 276.865 602.159 277.922C602.159 278.979 602.159 280.057 602.159 281.155C602.199 282.212 602.24 283.453 602.281 284.876C602.321 286.259 602.362 287.967 602.403 290H600.268C600.308 288.007 600.329 286.34 600.329 284.998C600.369 283.656 600.41 282.497 600.451 281.521C600.491 280.504 600.512 279.569 600.512 278.715C600.512 277.861 600.512 276.946 600.512 275.97C600.512 274.994 600.512 273.835 600.512 272.493C600.512 270.094 600.105 268.264 599.292 267.003C598.478 265.702 597.441 264.827 596.181 264.38C594.92 263.933 593.558 263.709 592.094 263.709C589.776 263.709 587.844 264.217 586.299 265.234C584.753 266.21 583.594 267.613 582.822 269.443C582.09 271.273 581.724 273.428 581.724 275.909C581.724 276.722 581.724 277.454 581.724 278.105C581.724 278.756 581.724 279.528 581.724 280.423C581.764 281.318 581.805 282.517 581.846 284.022C581.886 285.486 581.927 287.479 581.968 290H579.833C579.873 288.007 579.914 286.34 579.955 284.998C579.995 283.615 580.016 282.436 580.016 281.46C580.056 280.484 580.077 279.569 580.077 278.715C580.077 277.82 580.077 276.905 580.077 275.97C580.077 274.994 580.077 273.835 580.077 272.493C580.077 270.094 579.67 268.264 578.857 267.003C578.084 265.702 577.047 264.827 575.746 264.38C574.485 263.933 573.123 263.709 571.659 263.709C569.422 263.709 567.531 264.177 565.986 265.112C564.481 266.047 563.342 267.43 562.57 269.26C561.797 271.09 561.411 273.306 561.411 275.909C561.411 276.763 561.411 277.515 561.411 278.166C561.411 278.817 561.411 279.589 561.411 280.484C561.451 281.379 561.492 282.578 561.533 284.083C561.573 285.547 561.614 287.519 561.655 290H559.459ZM624.8 290.915C621.953 290.915 619.574 290.488 617.663 289.634C615.792 288.78 614.287 287.601 613.149 286.096C612.051 284.551 611.258 282.802 610.77 280.85C610.322 278.898 610.099 276.824 610.099 274.628C610.099 271.171 610.688 268.345 611.868 266.149C613.088 263.912 614.653 262.265 616.565 261.208C618.517 260.151 620.57 259.622 622.726 259.622C626.02 259.622 628.582 260.273 630.412 261.574C632.242 262.875 633.523 264.665 634.255 266.942C635.027 269.219 635.414 271.842 635.414 274.811H611.685C611.725 276.478 611.929 278.085 612.295 279.63C612.701 281.135 613.372 282.477 614.308 283.656C615.243 284.795 616.504 285.71 618.09 286.401C619.716 287.052 621.75 287.377 624.19 287.377C625.857 287.377 627.423 287.255 628.887 287.011C630.351 286.767 631.916 286.381 633.584 285.852V289.634C631.916 290.163 630.391 290.508 629.009 290.671C627.626 290.834 626.223 290.915 624.8 290.915ZM633.584 272.92C633.584 269.87 632.648 267.471 630.778 265.722C628.907 263.933 626.223 263.038 622.726 263.038C620.774 263.038 618.984 263.445 617.358 264.258C615.772 265.031 614.47 266.169 613.454 267.674C612.478 269.138 611.929 270.887 611.807 272.92H633.584Z" fill="black"/>
</svg>
